<svg viewBox="0 0 458 293" fill="none" xmlns="http://www.w3.org/2000/svg">
<g clip-path="url(#clip0_60_18)">
<path d="M0 159.818C0 155.138 0.814913 150.567 2.44474 146.104C4.14544 141.568 6.59016 137.465 9.77895 133.793C12.9677 130.05 16.8652 127.098 21.4712 124.938C26.0772 122.707 31.321 121.591 37.2026 121.591C44.1471 121.591 50.1348 123.139 55.1659 126.234C60.2682 129.33 64.0594 133.361 66.5394 138.328L55.2723 146.211C53.9967 143.332 52.3316 141.064 50.2767 139.409C48.2214 137.681 46.0249 136.493 43.6865 135.845C41.348 135.125 39.0448 134.765 36.7775 134.765C33.0925 134.765 29.8683 135.521 27.1047 137.033C24.412 138.545 22.1444 140.524 20.3019 142.972C18.4595 145.42 17.0777 148.155 16.1565 151.179C15.3062 154.202 14.881 157.226 14.881 160.25C14.881 163.633 15.4125 166.909 16.4754 170.076C17.5383 173.172 19.0264 175.943 20.9397 178.391C22.9238 180.767 25.2623 182.675 27.955 184.114C30.7187 185.482 33.7302 186.166 36.9899 186.166C39.3283 186.166 41.7023 185.77 44.1115 184.978C46.5208 184.186 48.7532 182.926 50.8081 181.199C52.8631 179.471 54.4574 177.239 55.5914 174.504L67.6022 181.523C66.1143 185.338 63.6695 188.578 60.2682 191.241C56.9377 193.905 53.1818 195.921 49.0011 197.289C44.8201 198.656 40.6747 199.34 36.5648 199.34C31.1793 199.34 26.2544 198.224 21.7901 195.993C17.3258 193.689 13.4638 190.666 10.2041 186.922C7.01534 183.106 4.49973 178.859 2.65732 174.18C0.885774 169.428 0 164.641 0 159.818Z" fill="#010F5C"/>
<path d="M102.636 199.772C98.1006 199.772 94.026 199.016 90.412 197.504C86.7983 195.921 83.7157 193.761 81.1646 191.025C78.6846 188.29 76.7712 185.158 75.4249 181.631C74.0785 178.103 73.4052 174.396 73.4052 170.508C73.4052 166.549 74.0785 162.805 75.4249 159.278C76.7712 155.75 78.6846 152.619 81.1646 149.883C83.7157 147.147 86.7983 145.024 90.412 143.512C94.026 141.928 98.1006 141.136 102.636 141.136C107.171 141.136 111.21 141.928 114.753 143.512C118.367 145.024 121.45 147.147 124.001 149.883C126.552 152.619 128.465 155.75 129.741 159.278C131.087 162.805 131.76 166.549 131.76 170.508C131.76 174.396 131.087 178.103 129.741 181.631C128.465 185.158 126.552 188.29 124.001 191.025C121.521 193.761 118.474 195.921 114.86 197.504C111.246 199.016 107.171 199.772 102.636 199.772ZM88.0735 170.508C88.0735 173.82 88.7113 176.771 89.9869 179.363C91.2625 181.883 92.9987 183.862 95.1952 185.302C97.3921 186.742 99.8721 187.462 102.636 187.462C105.329 187.462 107.773 186.742 109.97 185.302C112.167 183.79 113.903 181.775 115.178 179.255C116.525 176.663 117.198 173.712 117.198 170.4C117.198 167.161 116.525 164.245 115.178 161.654C113.903 159.062 112.167 157.046 109.97 155.606C107.773 154.166 105.329 153.447 102.636 153.447C99.8721 153.447 97.3921 154.202 95.1952 155.714C92.9987 157.154 91.2625 159.17 89.9869 161.761C88.7113 164.281 88.0735 167.197 88.0735 170.508Z" fill="#010F5C"/>
<path d="M175.6 154.634C171.277 154.634 167.415 155.498 164.014 157.226C160.613 158.882 158.168 161.294 156.68 164.461V198.693H142.437V142.108H155.511V154.203C157.495 150.315 160.01 147.255 163.058 145.024C166.105 142.792 169.329 141.568 172.73 141.353C173.51 141.353 174.112 141.353 174.537 141.353C174.962 141.353 175.317 141.388 175.6 141.46V154.634Z" fill="#010F5C"/>
<path d="M209.708 199.772C205.243 199.772 201.204 199.016 197.59 197.504C193.976 195.921 190.894 193.797 188.343 191.133C185.792 188.398 183.808 185.302 182.39 181.847C181.044 178.319 180.371 174.611 180.371 170.724C180.371 165.325 181.54 160.394 183.879 155.93C186.288 151.467 189.689 147.903 194.082 145.24C198.547 142.504 203.791 141.136 209.814 141.136C215.908 141.136 221.116 142.504 225.439 145.24C229.762 147.903 233.057 151.467 235.324 155.93C237.663 160.322 238.832 165.073 238.832 170.184C238.832 171.048 238.797 171.948 238.726 172.884C238.655 173.748 238.584 174.468 238.513 175.044H195.464C195.748 177.923 196.563 180.443 197.909 182.602C199.326 184.762 201.098 186.418 203.224 187.57C205.421 188.65 207.759 189.19 210.239 189.19C213.073 189.19 215.731 188.506 218.211 187.138C220.762 185.698 222.498 183.826 223.42 181.523L235.643 184.978C234.297 187.858 232.348 190.414 229.797 192.645C227.317 194.877 224.376 196.641 220.975 197.936C217.573 199.16 213.818 199.772 209.708 199.772ZM195.146 165.865H224.27C223.986 162.985 223.171 160.502 221.825 158.414C220.55 156.254 218.849 154.598 216.723 153.447C214.597 152.223 212.223 151.611 209.601 151.611C207.05 151.611 204.712 152.223 202.586 153.447C200.531 154.598 198.83 156.254 197.484 158.414C196.209 160.502 195.429 162.985 195.146 165.865Z" fill="#010F5C"/>
<path d="M244.229 189.838L274.948 152.259H245.504V142.108H290.254V150.963L259.747 188.542H290.785V198.693H244.229V189.838Z" fill="#010F5C"/>
<path d="M326.221 199.772C321.685 199.772 317.611 199.016 313.997 197.504C310.383 195.921 307.301 193.761 304.749 191.025C302.269 188.29 300.356 185.158 299.01 181.631C297.663 178.103 296.99 174.396 296.99 170.508C296.99 166.549 297.663 162.805 299.01 159.278C300.356 155.75 302.269 152.619 304.749 149.883C307.301 147.147 310.383 145.024 313.997 143.512C317.611 141.928 321.685 141.136 326.221 141.136C330.756 141.136 334.796 141.928 338.339 143.512C341.951 145.024 345.036 147.147 347.585 149.883C350.137 152.619 352.048 155.75 353.324 159.278C354.67 162.805 355.345 166.549 355.345 170.508C355.345 174.396 354.67 178.103 353.324 181.631C352.048 185.158 350.137 188.29 347.585 191.025C345.105 193.761 342.058 195.921 338.445 197.504C334.829 199.016 330.756 199.772 326.221 199.772ZM311.658 170.508C311.658 173.82 312.296 176.771 313.572 179.363C314.847 181.883 316.584 183.862 318.78 185.302C320.977 186.742 323.457 187.462 326.221 187.462C328.913 187.462 331.358 186.742 333.556 185.302C335.753 183.79 337.488 181.775 338.764 179.255C340.11 176.663 340.781 173.712 340.781 170.4C340.781 167.161 340.11 164.245 338.764 161.654C337.488 159.062 335.753 157.046 333.556 155.606C331.358 154.166 328.913 153.447 326.221 153.447C323.457 153.447 320.977 154.202 318.78 155.714C316.584 157.154 314.847 159.17 313.572 161.761C312.296 164.281 311.658 167.197 311.658 170.508Z" fill="#010F5C"/>
<path d="M366.02 198.693V142.108H380.265V198.693H366.02ZM366.02 134.225V119.863H380.265V134.225H366.02Z" fill="#010F5C"/>
<path d="M390.774 170.4C390.774 164.929 391.837 159.998 393.965 155.606C396.088 151.143 399.03 147.615 402.785 145.024C406.541 142.432 410.828 141.136 415.647 141.136C419.758 141.136 423.444 142.18 426.701 144.268C430.031 146.284 432.62 148.875 434.462 152.043V119.863H448.706V182.495C448.706 184.007 448.952 185.086 449.447 185.734C449.946 186.382 450.797 186.778 452 186.922V198.693C449.521 199.196 447.5 199.448 445.941 199.448C443.389 199.448 441.265 198.8 439.563 197.505C437.935 196.209 437.014 194.517 436.801 192.429L436.589 188.866C434.532 192.393 431.733 195.093 428.19 196.965C424.717 198.836 421.068 199.772 417.243 199.772C413.417 199.772 409.871 199.017 406.614 197.505C403.423 195.993 400.625 193.905 398.215 191.241C395.879 188.578 394.034 185.482 392.688 181.955C391.412 178.355 390.774 174.504 390.774 170.4ZM434.462 177.959V164.461C433.754 162.374 432.62 160.502 431.062 158.846C429.5 157.19 427.765 155.894 425.85 154.958C423.939 153.951 422.025 153.447 420.111 153.447C417.914 153.447 415.93 153.915 414.158 154.85C412.387 155.786 410.828 157.046 409.482 158.63C408.206 160.214 407.215 162.05 406.507 164.137C405.869 166.225 405.55 168.421 405.55 170.724C405.55 173.028 405.903 175.224 406.614 177.312C407.392 179.327 408.492 181.091 409.907 182.603C411.327 184.115 412.955 185.303 414.796 186.166C416.711 187.03 418.765 187.462 420.962 187.462C422.308 187.462 423.654 187.246 425.003 186.814C426.419 186.31 427.728 185.662 428.935 184.87C430.211 184.007 431.308 182.999 432.228 181.847C433.222 180.623 433.967 179.327 434.462 177.959Z" fill="#010F5C"/>
<mask id="mask0_60_18" style="mask-type:luminance" maskUnits="userSpaceOnUse" x="0" y="2" width="359" height="89">
<path d="M358.775 2.82617H0V90.4279H358.775V2.82617Z" fill="white"/>
</mask>
<g mask="url(#mask0_60_18)">
<path d="M338.698 3.67334C350.499 3.67441 355.295 26.9233 361.883 51.0381C363.79 58.0032 366.888 66.9071 369.842 73.2002C369.148 73.2172 368.46 73.2262 367.778 73.2265C356.478 70.4004 354.85 57.8091 353.653 53.444C350.064 40.3553 344.594 14.0037 339.17 12.5174C338.877 12.5827 338.571 12.6215 338.259 12.6215C338.049 12.6215 337.837 12.6574 337.624 12.7288C332.306 15.4451 326.395 37.2155 322.982 49.3244C317.514 68.6031 313.036 84.521 305.121 88.6547C303.688 89.5034 302.144 89.9585 300.46 89.9585C290.806 89.9585 286.387 73.734 280.256 51.2655C276.563 37.7945 269.707 12.6963 264.132 12.6963C258.556 12.7001 252.064 36.6388 248.42 49.5685C242.072 72.0362 237.027 89.9578 226.359 89.9585C216.704 89.9585 212.286 73.7336 206.155 51.2655C202.462 37.7209 195.608 12.6224 190.008 12.6215C184.408 12.6215 177.941 36.5629 174.296 49.4935C167.948 72.0356 162.925 89.9585 152.232 89.9585C142.578 89.9578 138.162 73.733 132.031 51.2655C128.338 37.7949 121.483 12.6979 115.907 12.6963C110.331 12.6963 103.836 36.6382 100.191 49.5685C93.8435 72.0362 88.8004 89.9578 78.1083 89.9585C68.4534 89.9585 64.0351 73.7336 57.9042 51.2655C54.2111 37.7945 47.3556 12.6963 41.7797 12.6963C36.2045 12.6992 29.7123 36.6388 26.0678 49.5685C19.6955 72.0369 14.674 89.9585 3.98121 89.9585C1.62253 89.9582 -0.289271 88.0104 -0.290039 85.6081C-0.290039 83.2052 1.62205 81.2547 3.98121 81.2544C8.22938 81.2544 14.7231 58.197 17.8368 47.1103C24.3537 23.9053 29.9775 3.92162 41.7797 3.92046C53.5829 3.92046 59.5457 24.741 66.1352 48.8563C69.2969 60.4091 74.5577 79.7291 78.2023 81.1828C82.2816 81.1828 88.7755 58.0998 91.8893 47.0127C98.4788 23.9052 104.104 3.92046 115.907 3.92046C127.71 3.92109 133.673 24.7413 140.262 48.8563C143.424 60.4101 148.685 79.7325 152.329 81.1828C156.409 81.1828 162.902 58.0994 166.016 47.0127C172.606 23.9052 178.326 3.92046 190.008 3.92046C201.69 3.92083 207.774 24.7412 214.363 48.8563C217.525 60.4095 222.81 79.7291 226.43 81.2055C230.51 81.2055 236.98 58.1221 240.117 47.0353C246.634 23.9042 252.185 3.92079 264.06 3.92046C275.936 3.92046 281.826 24.741 288.416 48.8563C291.513 60.1734 296.629 78.9347 300.262 81.0626C300.47 81.031 300.682 81.0104 300.898 81.0104C300.991 81.0104 301.083 80.993 301.178 80.9714C305.264 78.6644 311.205 57.4874 314.17 47.0127C319.8 27.1966 324.809 9.67674 333.566 5.08776C335.141 4.16701 336.843 3.67334 338.698 3.67334ZM635.173 3.67334C637.533 3.67334 639.447 5.62132 639.447 8.02386C639.447 10.4269 637.533 12.3776 635.173 12.3776C629.815 12.3811 623.105 36.3202 619.459 49.2498C613.088 71.7918 607.993 89.7115 597.375 89.7115C587.72 89.7105 583.303 73.4862 577.174 51.0185C573.482 37.5478 566.625 12.4507 561.048 12.4492C555.475 12.4492 548.977 36.3941 545.335 49.3244C538.987 71.7922 533.942 89.7115 523.273 89.7115C513.618 89.7108 509.201 73.4862 503.073 51.0185C499.38 37.4736 492.521 12.3776 486.92 12.3776C481.324 12.3808 474.853 36.3202 471.21 49.2498C464.862 71.7912 459.84 89.7105 449.148 89.7115C439.494 89.7115 435.077 73.4869 428.945 51.0185C425.252 37.5471 418.396 12.4492 412.822 12.4492C407.245 12.4516 400.755 36.3948 397.109 49.3244C393.353 62.6216 387.51 68.5459 381.152 71.1715C384.084 63.5279 387.012 53.1554 388.806 46.7656C395.397 23.6593 401.017 3.67431 412.822 3.67334C424.624 3.67334 430.587 24.4944 437.177 48.6092C440.338 60.1614 445.599 79.4808 449.245 80.9358C453.323 80.9358 459.817 57.8524 462.931 46.7656C469.518 23.6593 475.241 3.67461 486.92 3.67334C498.603 3.67334 504.688 24.4944 511.279 48.6092C514.439 60.1631 519.727 79.4867 523.346 80.9617C527.428 80.9557 533.895 57.877 537.033 46.7916C543.547 23.6595 549.104 3.67334 560.979 3.67334C572.85 3.67514 578.74 24.4955 585.33 48.6092C588.491 60.1631 593.755 79.4854 597.401 80.9358C601.479 80.9321 607.947 57.8514 611.084 46.7656C617.648 23.6592 623.371 3.67467 635.173 3.67334ZM381.152 71.1715C378.999 76.7895 376.848 80.9354 375.12 80.9358C373.671 80.3598 371.79 77.3465 369.842 73.2002C373.585 73.1097 377.453 72.6988 381.152 71.1715Z" fill="url(#paint0_linear_60_18)"/>
</g>
<path d="M399.738 93.2533C425.481 93.2533 446.35 72.3778 446.35 46.6266C446.35 20.8755 425.481 0 399.738 0C373.994 0 353.125 20.8755 353.125 46.6266C353.125 72.3778 373.994 93.2533 399.738 93.2533Z" fill="#010F5C"/>
<path d="M414.134 269.02V238.522H418V269.02H414.134Z" fill="#010F5C"/>
<path d="M378.78 269.02V238.522H391.494C392.84 238.522 394.072 238.808 395.189 239.381C396.305 239.925 397.279 240.67 398.11 241.615C398.94 242.531 399.584 243.576 400.043 244.751C400.501 245.896 400.73 247.07 400.73 248.273C400.73 249.934 400.358 251.523 399.613 253.041C398.868 254.53 397.823 255.747 396.477 256.692C395.131 257.609 393.556 258.067 391.752 258.067H382.646V269.02H378.78ZM382.646 254.63H391.537C392.597 254.63 393.513 254.344 394.287 253.771C395.088 253.198 395.704 252.425 396.134 251.452C396.592 250.478 396.821 249.418 396.821 248.273C396.821 247.07 396.563 245.996 396.048 245.051C395.532 244.078 394.859 243.319 394.029 242.775C393.198 242.23 392.282 241.958 391.28 241.958H382.646V254.63Z" fill="#010F5C"/>
<path d="M342.167 269.02V238.565H346.033V255.403L361.755 238.522H365.921L353.679 251.967L366.609 269.02H362.27L351.23 254.287L346.033 259.699V269.02H342.167Z" fill="#010F5C"/>
<path d="M297.598 269.45C295.908 269.45 294.376 269.149 293.002 268.548C291.627 267.918 290.439 267.073 289.436 266.013C288.434 264.925 287.661 263.679 287.117 262.276C286.573 260.873 286.301 259.398 286.301 257.852C286.301 256.277 286.573 254.788 287.117 253.384C287.661 251.981 288.434 250.75 289.436 249.69C290.439 248.602 291.627 247.757 293.002 247.156C294.405 246.526 295.937 246.211 297.598 246.211C299.288 246.211 300.82 246.526 302.194 247.156C303.569 247.757 304.757 248.602 305.759 249.69C306.79 250.75 307.578 251.981 308.122 253.384C308.666 254.788 308.938 256.277 308.938 257.852C308.938 259.398 308.666 260.873 308.122 262.276C307.578 263.679 306.805 264.925 305.802 266.013C304.8 267.073 303.597 267.918 302.194 268.548C300.82 269.149 299.288 269.45 297.598 269.45ZM290.167 257.895C290.167 259.441 290.496 260.844 291.155 262.104C291.842 263.364 292.744 264.367 293.861 265.111C294.978 265.827 296.223 266.185 297.598 266.185C298.973 266.185 300.218 265.813 301.335 265.068C302.481 264.324 303.383 263.322 304.041 262.062C304.729 260.773 305.072 259.355 305.072 257.809C305.072 256.263 304.729 254.859 304.041 253.599C303.383 252.339 302.481 251.337 301.335 250.592C300.218 249.848 298.973 249.476 297.598 249.476C296.223 249.476 294.978 249.862 293.861 250.635C292.744 251.38 291.842 252.382 291.155 253.642C290.496 254.902 290.167 256.32 290.167 257.895Z" fill="#010F5C"/>
<path d="M276.003 267.904C275.688 268.047 275.259 268.233 274.714 268.462C274.17 268.691 273.54 268.892 272.824 269.063C272.109 269.235 271.35 269.321 270.548 269.321C269.631 269.321 268.787 269.164 268.013 268.849C267.24 268.505 266.625 267.99 266.166 267.302C265.708 266.586 265.479 265.699 265.479 264.639V249.562H262.429V246.598H265.479V239.124H269.259V246.598H274.285V249.562H269.259V263.479C269.316 264.281 269.588 264.882 270.075 265.283C270.562 265.656 271.135 265.842 271.793 265.842C272.538 265.842 273.225 265.713 273.855 265.455C274.485 265.198 274.901 265.011 275.101 264.897L276.003 267.904Z" fill="#010F5C"/>
<path d="M225.801 269.02V238.522H229.667V269.02H225.801Z" fill="#010F5C"/>
<path d="M190.447 269.02V238.522H203.162C204.508 238.522 205.739 238.808 206.856 239.381C207.973 239.925 208.946 240.67 209.777 241.615C210.607 242.531 211.252 243.576 211.71 244.751C212.168 245.896 212.397 247.07 212.397 248.273C212.397 249.934 212.025 251.523 211.28 253.041C210.536 254.53 209.49 255.747 208.144 256.692C206.798 257.609 205.223 258.067 203.419 258.067H194.313V269.02H190.447ZM194.313 254.63H203.205C204.264 254.63 205.181 254.344 205.954 253.771C206.756 253.198 207.371 252.425 207.801 251.452C208.259 250.478 208.488 249.418 208.488 248.273C208.488 247.07 208.23 245.996 207.715 245.051C207.199 244.078 206.526 243.319 205.696 242.775C204.865 242.23 203.949 241.958 202.947 241.958H194.313V254.63Z" fill="#010F5C"/>
<path d="M162.064 238.522H165.328L177.785 269.02H173.662L170.053 260.086H157.253L153.687 269.02H149.564L162.064 238.522ZM169.194 257.079L163.696 242.989L158.026 257.079H169.194Z" fill="#010F5C"/>
<path d="M119.602 269.02H115.822V256.477C115.822 254.129 115.435 252.397 114.662 251.28C113.917 250.163 112.801 249.604 111.312 249.604C109.794 249.604 108.419 250.163 107.188 251.28C105.956 252.368 105.083 253.785 104.567 255.532V269.02H100.787V256.477C100.787 254.1 100.415 252.368 99.6706 251.28C98.926 250.163 97.8092 249.604 96.32 249.604C94.8309 249.604 93.4564 250.149 92.1963 251.237C90.9649 252.296 90.0915 253.714 89.576 255.489V269.02H85.796V246.598H89.2324V251.409C90.1488 249.748 91.3372 248.473 92.7977 247.586C94.2582 246.669 95.9048 246.211 97.7376 246.211C99.599 246.211 101.088 246.726 102.205 247.757C103.322 248.76 104.009 250.063 104.267 251.666C105.269 249.891 106.486 248.545 107.918 247.628C109.35 246.683 110.982 246.211 112.815 246.211C114.104 246.211 115.177 246.454 116.037 246.941C116.924 247.399 117.626 248.058 118.141 248.917C118.657 249.748 119.029 250.736 119.258 251.881C119.487 253.027 119.602 254.272 119.602 255.618V269.02Z" fill="#010F5C"/>
<path d="M61.2842 269.45C59.5946 269.45 58.0625 269.149 56.6879 268.548C55.3134 267.918 54.1249 267.073 53.1226 266.013C52.1203 264.925 51.3471 263.679 50.803 262.276C50.2589 260.873 49.9869 259.398 49.9869 257.852C49.9869 256.277 50.2589 254.788 50.803 253.384C51.3471 251.981 52.1203 250.75 53.1226 249.69C54.1249 248.602 55.3134 247.757 56.6879 247.156C58.0911 246.526 59.6232 246.211 61.2842 246.211C62.9737 246.211 64.5058 246.526 65.8804 247.156C67.255 247.757 68.4434 248.602 69.4457 249.69C70.4766 250.75 71.2642 251.981 71.8083 253.384C72.3524 254.788 72.6244 256.277 72.6244 257.852C72.6244 259.398 72.3524 260.873 71.8083 262.276C71.2642 263.679 70.491 264.925 69.4887 266.013C68.4864 267.073 67.2836 267.918 65.8804 268.548C64.5058 269.149 62.9737 269.45 61.2842 269.45ZM53.8529 257.895C53.8529 259.441 54.1822 260.844 54.8408 262.104C55.5281 263.364 56.4302 264.367 57.547 265.111C58.6639 265.827 59.9096 266.185 61.2842 266.185C62.6587 266.185 63.9044 265.813 65.0213 265.068C66.1668 264.324 67.0688 263.322 67.7275 262.062C68.4148 260.773 68.7584 259.355 68.7584 257.809C68.7584 256.263 68.4148 254.859 67.7275 253.599C67.0688 252.339 66.1668 251.337 65.0213 250.592C63.9044 249.848 62.6587 249.476 61.2842 249.476C59.9096 249.476 58.6639 249.862 57.547 250.635C56.4302 251.38 55.5281 252.382 54.8408 253.642C54.1822 254.902 53.8529 256.32 53.8529 257.895Z" fill="#010F5C"/>
<path d="M39.6954 249.905C37.8053 249.934 36.1301 250.421 34.6696 251.366C33.2377 252.282 32.2211 253.556 31.6197 255.189V269.02H27.8397V246.598H31.362V251.795C32.1352 250.249 33.1518 249.003 34.4118 248.058C35.7005 247.084 37.0464 246.54 38.4497 246.426C38.736 246.426 38.9794 246.426 39.1799 246.426C39.3804 246.426 39.5522 246.44 39.6954 246.469V249.905Z" fill="#010F5C"/>
<path d="M5.72733 269.02V249.562H2.67749V246.598H5.72733V246.125C5.72733 244.292 5.99938 242.717 6.54348 241.4C7.11622 240.054 7.91806 239.023 8.94899 238.307C9.97992 237.591 11.197 237.233 12.6002 237.233C13.4879 237.233 14.3614 237.362 15.2205 237.62C16.0796 237.849 16.8528 238.178 17.5401 238.608L16.5951 241.4C16.1941 241.114 15.693 240.885 15.0916 240.713C14.5189 240.541 13.9461 240.455 13.3734 240.455C12.142 240.455 11.1827 240.942 10.4954 241.916C9.83673 242.861 9.50741 244.221 9.50741 245.996V246.598H15.4782V249.562H9.50741V269.02H5.72733Z" fill="#010F5C"/>
</g>
<path d="M442.919 268.49C440.79 268.49 438.809 268.129 436.976 267.406C435.17 266.683 433.593 265.665 432.245 264.353C430.898 263.041 429.846 261.501 429.092 259.734C428.364 257.967 428 256.039 428 253.95C428 251.888 428.364 249.974 429.092 248.206C429.846 246.439 430.898 244.913 432.245 243.627C433.593 242.315 435.17 241.298 436.976 240.575C438.809 239.852 440.79 239.49 442.919 239.49C445.075 239.49 447.07 239.852 448.903 240.575C450.736 241.298 452.326 242.315 453.674 243.627C455.049 244.913 456.113 246.439 456.868 248.206C457.623 249.974 458 251.888 458 253.95C458 256.039 457.623 257.967 456.868 259.734C456.113 261.501 455.049 263.041 453.674 264.353C452.326 265.665 450.736 266.683 448.903 267.406C447.07 268.129 445.075 268.49 442.919 268.49ZM442.919 266.723C444.779 266.723 446.504 266.415 448.094 265.799C449.685 265.183 451.073 264.313 452.259 263.188C453.472 262.064 454.415 260.725 455.089 259.172C455.763 257.619 456.1 255.905 456.1 254.03C456.1 252.21 455.763 250.523 455.089 248.969C454.442 247.416 453.526 246.064 452.34 244.913C451.154 243.761 449.752 242.864 448.135 242.222C446.544 241.579 444.806 241.258 442.919 241.258C441.059 241.258 439.334 241.579 437.744 242.222C436.154 242.864 434.765 243.761 433.58 244.913C432.42 246.064 431.504 247.416 430.83 248.969C430.183 250.496 429.86 252.169 429.86 253.99C429.86 255.784 430.183 257.458 430.83 259.011C431.477 260.537 432.394 261.89 433.58 263.068C434.765 264.219 436.154 265.116 437.744 265.759C439.334 266.402 441.059 266.723 442.919 266.723ZM443.243 263.349C441.922 263.349 440.682 263.121 439.523 262.666C438.364 262.211 437.34 261.568 436.45 260.738C435.561 259.908 434.86 258.917 434.348 257.766C433.836 256.614 433.58 255.342 433.58 253.95C433.58 252.799 433.768 251.661 434.146 250.536C434.55 249.411 435.143 248.394 435.925 247.483C436.706 246.573 437.69 245.85 438.876 245.314C440.062 244.779 441.45 244.511 443.04 244.511C444.927 244.511 446.585 244.913 448.013 245.716C449.469 246.519 450.52 247.671 451.167 249.17L447.73 250.255C447.407 249.532 446.962 248.983 446.396 248.608C445.857 248.206 445.291 247.939 444.698 247.805C444.105 247.644 443.553 247.564 443.04 247.564C442.07 247.564 441.221 247.751 440.493 248.126C439.766 248.474 439.159 248.956 438.674 249.572C438.189 250.188 437.825 250.871 437.582 251.62C437.34 252.37 437.218 253.147 437.218 253.95C437.218 254.968 437.394 255.878 437.744 256.681C438.094 257.458 438.553 258.114 439.119 258.65C439.712 259.185 440.358 259.6 441.059 259.895C441.76 260.162 442.447 260.296 443.121 260.296C443.741 260.296 444.361 260.189 444.981 259.975C445.628 259.734 446.221 259.413 446.76 259.011C447.299 258.583 447.704 258.074 447.973 257.485L451.41 258.529C451.113 259.252 450.588 259.988 449.833 260.738C449.105 261.461 448.175 262.077 447.043 262.586C445.938 263.095 444.671 263.349 443.243 263.349Z" fill="#010F5C"/>
<defs>
<linearGradient id="paint0_linear_60_18" x1="-0.290039" y1="46.9141" x2="354.282" y2="46.9141" gradientUnits="userSpaceOnUse">
<stop stop-color="white"/>
<stop offset="1" stop-color="#010F5C"/>
</linearGradient>
<clipPath id="clip0_60_18">
<rect width="452" height="293" fill="white"/>
</clipPath>
</defs>
</svg>
